:SAMPLES-PER-SECOND 30
:FULLY-SPECIFIED
:DEGREES
78
root  35.00956438 36.55100244 -14.47235618 10.60396862 2.333282709 2.783960819
lowerback  -8.115750313 1.48281002 1.378169417
upperback  -3.993419886 1.527609944 -3.500859976
thorax  0.5502820015 0.5492730141 -4.270929813
lowerneck  -14.51799965 2.929419994 2.865750074
upperneck  11.00990009 2.528389692 4.794250011
head  5.689239979 1.666149974 1.276309967
lclavicle  0 -4.497500157e-015 -2.743230041e-014
lhumerus  -44.76440048 27.15749931 68.37619781
lradius  -0.4896378815 -6.507048965e-006 27.59259796
lwrist  4.824992743e-007 -3.790274832e-007 -31.00009918
lhand  -4.417146452e-031 -36.92589951 -10.65839958
lfingers  90 7.125020027 -90
lthumb  94.82462761 -25.49362004 101.0951321
rclavicle  0 -4.497500157e-015 -2.743230041e-014
rhumerus  12.35619831 8.585029602 -68.35199738
rradius  -5.16745672e-007 2.214343908e-008 91.21140289
rwrist  1.129822067e-006 0.001802438172 -176.427002
rhand  -1.767719639e-031 2.830820084 -7.771259785
rfingers  -90 -7.125020027 -90
rthumb  -85.53835829 -8.22128555 -61.38029063
rfemur  -12.44540024 14.26376724 13.76486111
rtibia  -0.4418510795 1.026884198 19.67811584
rfoot  -0.1278603077 -18.31535149 -40.13785172
rtoes  4.154345328 19.58108392 -102.2284788
lfemur  -9.891785622 -17.29117203 -18.49944305
ltibia  2.800956249 1.810034513 14.19765568
lfoot  0.349973321 -28.45101547 32.5956955
ltoes  -8.537614544 -18.15401868 -115.7257561
79
root  35.0071434 36.55151908 -14.46983157 10.63863754 2.45696187 2.809017658
lowerback  -8.046870232 1.522089839 1.441819668
upperback  -4.03151989 1.573199987 -3.517549992
thorax  0.4788179994 0.5690019727 -4.321919918
lowerneck  -14.52880001 2.884540081 2.830539942
upperneck  11.04640007 2.472609997 4.800720215
head  5.702620029 1.639070034 1.279659986
lclavicle  0 -4.497500157e-015 -2.743230041e-014
lhumerus  -44.78129959 27.17140007 68.334198
lradius  -0.4898374379 -6.507048965e-006 27.57419968
lwrist  4.824992743e-007 -3.790274832e-007 -30.98819923
lhand  -0 -36.93180084 -10.66819954
lfingers  90 7.125020027 -90
lthumb  94.82949047 -25.50305286 101.1023513
rclavicle  0 -4.497500157e-015 -2.743230041e-014
rhumerus  14.01069927 8.479840279 -67.85369873
rradius  -5.16745672e-007 2.214343908e-008 90.88929749
rwrist  1.129822067e-006 0.001802438172 -176.3930054
rhand  -1.767803804e-031 2.8854599 -7.839839935
rfingers  -90 -7.125020027 -90
rthumb  -85.55987456 -8.164666812 -61.33184513
rfemur  -12.45963097 14.17003918 13.76536655
rtibia  -0.4595277309 1.003246307 19.69293404
rfoot  -0.1597265601 -18.3504715 -40.19814301
rtoes  4.155870898 19.58077234 -102.2330308
lfemur  -9.950663567 -17.37369347 -18.50180817
ltibia  2.817780495 1.803506136 14.21780396
lfoot  0.3469834626 -28.43653679 32.51806641
ltoes  -8.54552519 -18.1503948 -115.7511479
80
root  35.00691511 36.55164223 -14.4656294 10.66340923 2.58213377 2.820266962
lowerback  -7.994920254 1.57573998 1.512200713
upperback  -4.053709984 1.638399959 -3.561049938
thorax  0.4358769953 0.5988630056 -4.40279007
lowerneck  -14.51179981 2.816819906 2.763020039
upperneck  10.98919964 2.386430025 4.879199982
head  5.680990219 1.598170042 1.30637002
lclavicle  0 -4.497500157e-015 -2.743230041e-014
lhumerus  -44.76599884 27.13780022 68.31829834
lradius  -0.4900288582 -6.507048965e-006 27.59530067
lwrist  4.824992743e-007 -3.790274832e-007 -31.02319908
lhand  -0 -36.97650146 -10.65530014
lfingers  90 7.125020027 -90
lthumb  94.84770975 -25.48881061 101.1490482
rclavicle  0 -4.497500157e-015 -2.743230041e-014
rhumerus  15.58789825 8.40557003 -67.15280151
rradius  -5.16745672e-007 2.214343908e-008 90.75299835
rwrist  1.129822067e-006 0.001802438172 -176.701004
rhand  -1.768154169e-031 3.10255003 -7.731339931
rfingers  -90 -7.125020027 -90
rthumb  -85.46040512 -8.273855007 -61.11298556
rfemur  -12.46106339 14.08154297 13.78243923
rtibia  -0.4715194404 1.025739908 19.69545746
rfoot  -0.1640553176 -18.28951263 -40.22653961
rtoes  4.173678213 19.5771266 -102.2861703
lfemur  -10.00573826 -17.43759727 -18.48816872
ltibia  2.821890116 1.814166784 14.25514889
lfoot  0.3482179642 -28.47294235 32.43709946
ltoes  -8.554406996 -18.14632105 -115.7796629
81
root  35.00623928 36.55190656 -14.46486646 10.68789768 2.692343473 2.808455706
lowerback  -7.964570045 1.63906002 1.575209856
upperback  -4.05948019 1.717640042 -3.628700018
thorax  0.4238069952 0.6362490058 -4.503129959
lowerneck  -14.48079967 2.733180046 2.718130112
upperneck  10.87269974 2.277050257 4.958270073
head  5.639150143 1.545230031 1.326539993
lclavicle  0 -4.497500157e-015 -2.743230041e-014
lhumerus  -44.7071991 27.01679993 68.34290314
lradius  -0.4902123809 -6.507048965e-006 27.62140274
lwrist  4.824992743e-007 -3.790274832e-007 -30.98150063
lhand  -4.417981087e-031 -36.94029999 -10.61769962
lfingers  90 7.125020027 -90
lthumb  94.82269544 -25.45320061 101.1068052
rclavicle  0 -4.497500157e-015 -2.743230041e-014
rhumerus  17.21099854 8.059599876 -66.73840332
rradius  -5.16745672e-007 2.214343908e-008 90.43450165
rwrist  1.129822067e-006 0.001802438172 -176.9369965
rhand  -1.768491735e-031 3.298160076 -7.226560116
rfingers  -90 -7.125020027 -90
rthumb  -85.16961627 -8.727737616 -60.88576951
rfemur  -12.46736908 14.03624058 13.81896496
rtibia  -0.4764563441 1.058477402 19.68478775
rfoot  -0.1591091007 -18.22132874 -40.26212311
rtoes  4.175026167 19.57684997 -102.2901931
lfemur  -10.09909916 -17.46543884 -18.42399597
ltibia  2.788727999 1.834952712 14.34779835
lfoot  0.3599486947 -28.54669189 32.37385941
ltoes  -8.545493037 -18.15040954 -115.7510447
82
root  35.00279404 36.5516963 -14.46313182 10.7126112 2.851965904 2.817943096
lowerback  -7.907690048 1.72597003 1.612729907
upperback  -4.041309834 1.831130028 -3.762150049
thorax  0.426571995 0.6910300255 -4.655280113
lowerneck  -14.60599995 2.640949965 2.971790075
upperneck  10.80340004 2.097790003 4.916540146
head  5.644849777 1.463160038 1.257660031
lclavicle  0 -4.497500157e-015 -2.743230041e-014
lhumerus  -44.44269943 26.76409912 68.35870361
lradius  -0.4903882444 -6.507048965e-006 27.57540131
lwrist  4.824992743e-007 -3.790274832e-007 -31.04210281
lhand  -4.418584162e-031 -36.95069885 -10.6239996
lfingers  90 7.125020027 -90
lthumb  94.82893757 -25.45902318 101.1185748
rclavicle  0 -4.497500157e-015 -2.743230041e-014
rhumerus  18.91839981 7.739560127 -66.22720337
rradius  -5.16745672e-007 2.214343908e-008 89.96209717
rwrist  1.129822067e-006 0.001802438172 -176.6660004
rhand  -1.769315638e-031 3.732569933 -7.360239983
rfingers  -90 -7.125020027 -90
rthumb  -85.13742631 -8.638182176 -60.47213211
rfemur  -12.49480343 13.93792343 13.85591793
rtibia  -0.4998802841 1.090563893 19.73769569
rfoot  -0.1745905131 -18.16856194 -40.27272415
rtoes  4.164349475 19.57903854 -102.2583309
lfemur  -10.1190691 -17.50475311 -18.41230583
ltibia  2.819645405 1.864090323 14.32295322
lfoot  0.3582223952 -28.58431053 32.28032684
ltoes  -8.529377266 -18.15778775 -115.699321
83
root  35.00058632 36.55149505 -14.46364395 10.74673843 2.981076002 2.853144646
lowerback  -7.938380241 1.741920114 1.688070774
upperback  -4.082359791 1.843549967 -3.749259949
thorax  0.4040789902 0.6942700148 -4.683499813
lowerneck  -14.41520023 2.614789963 2.881690025
upperneck  10.74740028 2.093039751 4.932600021
head  5.593999863 1.455219984 1.27294004
lclavicle  0 -4.497500157e-015 -2.743230041e-014
lhumerus  -44.55450058 26.88809967 68.25610352
lradius  -0.4905567169 -6.507048965e-006 27.52050018
lwrist  4.824992743e-007 -3.790274832e-007 -31.03129959
lhand  -4.41948382e-031 -36.96620178 -10.61989975
lfingers  90 7.125020027 -90
lthumb  94.83532623 -25.45442273 101.1348166
rclavicle  0 -4.497500157e-015 -2.743230041e-014
rhumerus  20.37169838 7.873449326 -65.47779846
rradius  -5.16745672e-007 2.214343908e-008 89.80069733
rwrist  1.129822067e-006 0.001802438172 -176.6069946
rhand  -1.769327453e-031 3.738430023 -7.176939964
rfingers  -90 -7.125020027 -90
rthumb  -85.04466549 -8.79805815 -60.45265659
rfemur  -12.57666588 13.87179184 13.85951138
rtibia  -0.5447456241 1.119625807 19.86419487
rfoot  -0.2292301804 -18.11994171 -40.30785751
rtoes  4.162008069 19.57951771 -102.2513439
lfemur  -10.11876106 -17.57196808 -18.44563484
ltibia  2.878886938 1.886953712 14.24473
lfoot  0.3661191463 -28.58748245 32.24684143
ltoes  -8.525744481 -18.15944854 -115.6876643
84
root  34.99616187 36.55029657 -14.46396985 10.76306152 3.14806056 2.885874748
lowerback  -7.953850269 1.738530159 1.731380224
upperback  -4.098609924 1.836519957 -3.710829973
thorax  0.3952820003 0.6906790137 -4.668379784
lowerneck  -14.39080048 2.571019888 2.754950047
upperneck  10.74880028 2.067070007 4.920790195
head  5.588850021 1.437719941 1.286960006
lclavicle  0 -4.497500157e-015 -2.743230041e-014
lhumerus  -44.52959824 27.01749992 68.22129822
lradius  -0.4907180667 -6.507048965e-006 27.40519905
lwrist  4.824992743e-007 -3.790274832e-007 -30.97879982
lhand  -4.418915034e-031 -36.95640182 -10.64379978
lfingers  90 7.125020027 -90
lthumb  94.83582184 -25.47818458 101.1264837
rclavicle  0 -4.497500157e-015 -2.743230041e-014
rhumerus  22.00230217 7.853619576 -64.69789886
rradius  -5.16745672e-007 2.214343908e-008 89.44499969
rwrist  1.129822067e-006 0.001802438172 -176.8639984
rhand  -1.769671453e-031 3.905169964 -6.95126009
rfingers  -90 -7.125020027 -90
rthumb  -84.89297653 -9.004335398 -60.2724102
rfemur  -12.59606361 13.82520199 13.86707878
rtibia  -0.5750221014 1.141846418 19.93342781
rfoot  -0.2826105952 -18.0820446 -40.41603088
rtoes  4.157502674 19.58043895 -102.2378999
lfemur  -10.05194473 -17.62340736 -18.49541855
ltibia  2.978833914 1.929324389 14.10458088
lfoot  0.388810575 -28.60879326 32.2135849
ltoes  -8.513708097 -18.16494488 -115.64905
85
root  34.99038576 36.5480468 -14.46304471 10.76405621 3.311586142 2.900881529
lowerback  -7.96530056 1.784659982 1.783920288
upperback  -4.107490063 1.894690037 -3.719850063
thorax  0.399792999 0.7191230059 -4.702549934
lowerneck  -14.41800022 2.491709948 2.631330013
upperneck  10.73110008 1.976089954 4.990190029
head  5.586800098 1.393550038 1.320819974
lclavicle  0 -4.497500157e-015 -2.743230041e-014
lhumerus  -44.51539993 27.05019951 68.28029633
lradius  -0.4908725023 -6.507048965e-006 27.39929771
lwrist  4.824992743e-007 -3.790274832e-007 -31.00309944
lhand  -4.418694368e-031 -36.95259857 -10.66810036
lfingers  90 7.125020027 -90
lthumb  94.83921564 -25.50214307 101.1246161
rclavicle  0 -4.497500157e-015 -2.743230041e-014
rhumerus  23.66980171 7.602609158 -64.1568985
rradius  -5.16745672e-007 2.214343908e-008 88.86340332
rwrist  1.129822067e-006 0.001802438172 -177.2510071
rhand  -1.770395464e-031 4.234549999 -7.216599941
rfingers  -90 -7.125020027 -90
rthumb  -84.94977575 -8.794501076 -59.97179931
rfemur  -12.57055759 13.72956944 13.90278339
rtibia  -0.593855381 1.159209251 19.9451046
rfoot  -0.2994989157 -18.04534912 -40.4750061
rtoes  4.162433661 19.57943064 -102.2526139
lfemur  -10.02759266 -17.67243767 -18.50269699
ltibia  3.032470942 1.966321826 14.05738544
lfoot  0.4091053009 -28.6667099 32.15083313
ltoes  -8.543223675 -18.15144956 -115.74376
